<?xml version="1.0" encoding="utf-8"?>
<!-- Generator: Adobe Illustrator 19.1.0, SVG Export Plug-In . SVG Version: 6.00 Build 0)  -->
<svg version="1.1" id="Layer_1" xmlns="http://www.w3.org/2000/svg" xmlns:xlink="http://www.w3.org/1999/xlink" x="0px" y="0px"
	 viewBox="-935 517 48 48" style="enable-background:new -935 517 48 48;" xml:space="preserve">
<style type="text/css">
	.st0{fill:none;}
</style>
<path class="st0" d="M-920,498h48v48h-48V498z"/>
<path fill="#585653" d="M-911,520.8c-11.2,0-20.2,9-20.2,20.2s9,20.2,20.2,20.2s20.2-9,20.2-20.2S-899.8,520.8-911,520.8z M-911,529
	c3.3,0,6,2.7,6,6s-2.7,6-6,6s-6-2.7-6-6S-914.3,529-911,529z M-899,553.3c-3.1,3-7.3,4.9-12,4.9s-8.9-1.9-12-4.9V551
	c0-4,8-6.2,12-6.2s12,2.2,12,6.2V553.3z"/>
</svg>
