<?xml version="1.0" encoding="utf-8"?>
<!-- Generator: Adobe Illustrator 20.1.0, SVG Export Plug-In . SVG Version: 6.00 Build 0)  -->
<svg version="1.1" id="Layer_1" xmlns:sketch="http://www.bohemiancoding.com/sketch/ns"
	 xmlns="http://www.w3.org/2000/svg" xmlns:xlink="http://www.w3.org/1999/xlink" x="0px" y="0px" viewBox="0 0 286 43"
	 style="enable-background:new 0 0 286 43;" xml:space="preserve">
<style type="text/css">
	.st0{fill:#1E1E1E;}
	.st1{fill:#2196F3;}
</style>
<title>SM_logo</title>
<desc>Created with Sketch.</desc>
<g id="Page-1" sketch:type="MSPage">
	<g id="SM_logo" sketch:type="MSLayerGroup">
		<path id="Shape" sketch:type="MSShapeGroup" class="st0" d="M10.7,14.8c-0.4-3-2.3-4.5-4.4-4.5c-1.8,0-3,1-3,2.5
			c0,4.6,9.4,3.4,9.4,10c0,3-2.6,5.5-5.7,5.5c-2,0-3.7-1.3-4.6-1.3c-0.7,0-1.1,0.5-1.1,1.2H0.4v-6.1h0.8C2,25.9,4.7,27.3,7,27.3
			c1.8,0,3.1-1.3,3.1-3.1c0-5-9.5-3.7-9.5-9.7c0-2.8,2.5-5.2,5.5-5.2c1.9,0,2.5,0.8,3.7,0.8c0.5,0,0.8-0.2,1.1-0.8h0.8v5.5H10.7
			L10.7,14.8z"/>
		<path id="Shape_1_" sketch:type="MSShapeGroup" class="st0" d="M28.6,15.9c0.2-4-2.5-5.6-4.8-5.6c-3,0-4.7,2.2-5,5.6H28.6
			L28.6,15.9z M18.9,16.8c-0.1,8,4.7,10.1,7.1,10.1c2.5,0,3.8-0.8,6.4-3.8v1.3c-2.2,2.8-4.3,3.8-7.4,3.8c-5.6,0-9.7-3.9-9.7-9.3
			s4-9.7,9-9.7c4.1,0,8,3.4,7.7,7.5C32.1,16.8,18.9,16.8,18.9,16.8L18.9,16.8z"/>
		<path id="Shape_2_" sketch:type="MSShapeGroup" class="st0" d="M51.1,15.6h-0.8c-0.8-3.2-3.1-5.3-6.1-5.3c-3.5,0-6.1,3.1-6.1,7.4
			c0,4.9,3.1,9,6.7,9c2.2,0,4.8-1.1,6.7-3.8v1.3c-1.9,2.6-4.7,4-7.9,4c-5.3,0-9-3.7-9-9.1c0-5.5,4.1-10,9.3-10c2.7,0,4.1,1,5,1
			c0.5,0,0.9-0.4,1.2-1H51L51.1,15.6L51.1,15.6z"/>
		<path id="Shape_3_" sketch:type="MSShapeGroup" class="st0" d="M72.1,24.4c0,2,0.7,2.5,3.1,2.5v0.8l-6.5,0.4v-3.3h-0.1
			c-1.8,2.3-3.8,3.5-6.3,3.5c-3.5,0-5.9-2.7-5.9-6.1V13c0-1.7-0.6-2.4-3.2-2.4V9.8L59,9.3h0.8v12.8c0,2.5,1.6,4.1,4.1,4.1
			c1.7,0,3.3-1,4.7-2.9v-9.7c0-2.5-0.4-2.8-3.5-2.8V10l6.1-0.6H72L72.1,24.4L72.1,24.4z"/>
		<path id="Shape_4_" sketch:type="MSShapeGroup" class="st0" d="M83.6,24.4c0,2,0.6,2.5,3,2.5v0.8h-9.5v-0.8c2.8,0,3.1-0.7,3.1-3.4
			v-9.8c0-2.6-0.7-2.9-3.7-2.9V10l6.3-0.5h0.8v3.9c3.4-2.9,4.9-3.9,6.1-3.9c1,0,2.4,0.6,3.3,1.4L91.6,14c-1.4-0.8-3.1-1.6-4.3-1.6
			c-1.1,0-2.2,0.6-3.8,2.2L83.6,24.4L83.6,24.4z"/>
		<path id="Shape_5_" sketch:type="MSShapeGroup" class="st0" d="M101.9,2.2c0,1.2-1,2.2-2.2,2.2c-1.2,0-2.2-1-2.2-2.2
			s1-2.2,2.2-2.2C100.9,0,101.9,1,101.9,2.2L101.9,2.2z M101.4,24.4c0,1.8,0.5,2.5,3,2.5v0.8h-9.8v-0.8c2.8,0,3.4-0.4,3.4-2.5v-11
			c0-2.5-0.8-2.7-3.4-2.7V9.9l6-0.5h0.8V24.4L101.4,24.4z"/>
		<path id="Shape_6_" sketch:type="MSShapeGroup" class="st0" d="M112.7,9.7h6.2V11h-6.2v11.6c0,2.5,1.3,3.8,3.2,3.8
			c1.3,0,2.3-0.5,3.4-1.7l0.5,0.7c-1.6,2-3.4,3-5.4,3c-3.1,0-5.2-2.1-5.2-5.2v-12h-3.4v-0.8c2.5-1.2,4.4-3.4,6-6.5h0.8L112.7,9.7
			L112.7,9.7z"/>
		<path id="Shape_7_" sketch:type="MSShapeGroup" class="st0" d="M132.3,23.6l3.1-9.5c0.7-2.1,0.5-3.3-1.4-3.4V9.9h6.4v0.8
			c-1.9,0-3.1,1.2-4.1,4.2L129.1,36c-1.4,4.1-3.8,6.5-5.9,6.5c-0.8,0-1.3-0.2-2.2-0.8l1.1-3.1c0.7,0.3,1.1,0.4,1.7,0.4
			c2.2,0,3.4-1.3,4.6-4.4l2.3-6.5l-6.4-14.9c-0.9-2.1-1.6-2.6-3.7-2.7V9.7h8.6v0.8c-1.4,0.2-1.9,1.2-1.3,2.8L132.3,23.6L132.3,23.6z
			"/>
		<path id="Shape_8_" sketch:type="MSShapeGroup" class="st1" d="M161,12.8l-6.2,14.9H154l-6-14.9l-1.1,10.6c-0.2,2,0.3,3.1,2.4,3.5
			v0.8h-6.6v-0.8c1.9-0.3,2.7-0.9,3-3.5l1.1-11.7c-0.9-0.7-1.3-0.7-2.6-1V9.9h5.9l5.4,13.4l5.6-13.4h5.8v0.8c-1,0.1-2.6,0.4-2.6,2
			c0,0.2,0.1,1.6,0.1,1.8l0.8,8.8c0.3,3.3,1.3,3.5,3.1,3.7v0.8h-8.8V27c1.7-0.3,2.6-0.5,2.6-2.6L162,23L161,12.8L161,12.8z"/>
		<path id="Shape_9_" sketch:type="MSShapeGroup" class="st1" d="M177.9,23.9c0,3,0.4,3,2.2,3h2.8c1.3,0,3.1-0.1,4.1-2.6h0.8
			l-0.8,3.5h-15.2V27c2.2-0.2,2.9-0.4,2.9-3.1V13.8c0-2.6-0.8-2.8-2.9-3.1V9.9h14.9l0.3,3.4h-0.8c-0.5-2.6-2.4-2.6-4-2.6h-4.3v7.7
			h3.2c2.7,0,2.8-1.4,2.9-2.4h0.8v5.9H184c-0.1-1-0.1-2.4-2.9-2.4h-3.2V23.9L177.9,23.9z"/>
		<path id="Shape_10_" sketch:type="MSShapeGroup" class="st1" d="M200.6,23.9c0,2.7,1,2.9,2.9,3.1v0.8h-9.2V27
			c1.9-0.2,2.9-0.4,2.9-3.1V11.1h-2.8c-3.1,0-3.4,2.4-3.5,3.5h-0.7l0.1-5.5h0.8c0.7,0.5,1.1,0.9,2.8,0.9h10c1.6,0,2-0.3,2.8-0.9h0.8
			l0.1,5.5h-0.7c-0.1-1-0.4-3.5-3.5-3.5h-2.8V23.9L200.6,23.9z"/>
		<path id="Shape_11_" sketch:type="MSShapeGroup" class="st1" d="M216.6,18.8h2.3c2,0,4.3-0.7,4.3-4.1c0-2.4-1.1-4-3.8-4h-2.8V18.8
			L216.6,18.8z M213.4,13.7c0-2.6-1-2.8-2.9-3.1V9.8h8.9c1.4,0,7.3,0,7.3,4.7c0,1.8-1.2,3.6-4.1,4.4c1.9,0.9,2.7,2,5.2,5.5
			c1.7,2.3,2.6,2.3,4.2,2.5v0.8h-5.3c-1-1.1-1.4-1.5-3.9-5c-2.2-3.1-3.2-3.1-4.6-3.1h-1.6v4.1c0,2.7,1,2.9,2.9,3.1v0.8h-9.1v-0.8
			c1.9-0.2,2.9-0.4,2.9-3.1L213.4,13.7L213.4,13.7L213.4,13.7z"/>
		<path id="Shape_12_" sketch:type="MSShapeGroup" class="st1" d="M240.2,23.9c0,2.7,1,2.9,2.9,3.1v0.8H234V27
			c1.9-0.2,2.9-0.4,2.9-3.1V13.7c0-2.6-1-2.8-2.9-3.1V9.8h9.1v0.8c-1.9,0.2-2.9,0.4-2.9,3.1V23.9L240.2,23.9z"/>
		<path id="Shape_13_" sketch:type="MSShapeGroup" class="st1" d="M263.7,15.5H263c-0.4-1.3-0.6-2-1.2-2.8c-1.6-2.2-3.5-2.5-4.9-2.5
			c-4.6,0-6.7,4.3-6.7,8.3c0,5.6,3.7,8.2,7.1,8.2c0.5,0,3.8,0,6.3-3.4l0.6,0.5c-0.7,1.1-2.5,4.3-8,4.3c-6.4,0-9.7-5.1-9.7-9.2
			c0-5.4,4.9-9.5,9.8-9.5c1.6,0,3.5,0.4,4.3,0.5c0.3,0.1,0.7,0.1,1.1,0.1c0.4,0,0.6-0.2,1-0.5h0.7L263.7,15.5L263.7,15.5z"/>
		<path id="Shape_14_" sketch:type="MSShapeGroup" class="st1" d="M278.1,14.8h-0.7c-0.3-2.8-1.8-4.6-4.4-4.6c-2,0-3.1,1.4-3.1,2.6
			c0,1.6,0.8,2,4.7,4.3C277.8,19,279,21,279,23c0,2.4-2.1,5.2-5.8,5.2c-0.8,0-1.5,0-3.3-0.9c-0.2-0.1-0.5-0.2-0.7-0.2
			c-0.6,0-0.7,0.4-0.8,0.7h-0.9V22h0.8c0.5,2.8,1.9,5.3,4.8,5.3c1.7,0,3.4-1.1,3.4-3.1s-1.4-2.9-4.8-4.9c-1.9-1.1-4-2.5-4-5.2
			c0-2.4,1.8-4.7,5.2-4.7c0.7,0,1.2,0.1,1.8,0.2c1.4,0.4,1.5,0.4,1.8,0.4c0.5,0,0.8-0.3,1-0.4h0.7v5.2H278.1z"/>
		<path id="Shape_15_" sketch:type="MSShapeGroup" class="st1" d="M283.7,10.4c0-0.1,0-0.1-0.1-0.2c0-0.1-0.1-0.1-0.1-0.1
			c-0.1-0.1-0.1-0.1-0.2-0.1H283h-0.5v1h0.4c0.1,0,0.2,0,0.4-0.1c0.1,0,0.2-0.1,0.2-0.1c0.1-0.1,0.1-0.1,0.1-0.2
			C283.7,10.6,283.7,10.4,283.7,10.4L283.7,10.4z M284.8,12.5h-0.7l-1.1-1.1h-0.5v1.1H282V9.6h1h0.5c0.1,0,0.2,0.1,0.4,0.1
			c0.1,0.1,0.2,0.2,0.3,0.2c0.1,0.1,0.1,0.2,0.1,0.4s-0.1,0.4-0.2,0.5c-0.1,0.1-0.3,0.2-0.5,0.4L284.8,12.5L284.8,12.5z M285.5,11
			c0-0.7-0.2-1.3-0.7-1.7c-0.5-0.5-1-0.7-1.7-0.7c-0.7,0-1.3,0.2-1.7,0.7c-0.5,0.5-0.7,1-0.7,1.7s0.2,1.3,0.7,1.7
			c0.5,0.5,1,0.7,1.7,0.7c0.7,0,1.3-0.2,1.7-0.7C285.3,12.3,285.5,11.7,285.5,11L285.5,11z M285.9,11c0,0.8-0.3,1.4-0.8,2
			c-0.5,0.5-1.2,0.8-2,0.8c-0.8,0-1.4-0.3-2-0.8c-0.5-0.5-0.8-1.2-0.8-2s0.3-1.4,0.8-2c0.5-0.5,1.2-0.8,2-0.8c0.8,0,1.4,0.3,2,0.8
			C285.6,9.6,285.9,10.3,285.9,11L285.9,11z"/>
	</g>
</g>
</svg>
