<?xml version="1.0" encoding="UTF-8" standalone="no"?>
<svg width="300px" height="45px" viewBox="0 0 300 45" version="1.1" xmlns="http://www.w3.org/2000/svg" xmlns:xlink="http://www.w3.org/1999/xlink">
    <!-- Generator: Sketch 3.8.3 (29802) - http://www.bohemiancoding.com/sketch -->
    <title>sm_logo_white</title>
    <desc>Created with Sketch.</desc>
    <defs></defs>
    <g id="Page-1" stroke="none" stroke-width="1" fill="none" fill-rule="evenodd">
        <g id="sm_logo_white" fill="#FFFFFF">
            <g id="Layer_1">
                <path d="M11.3,15.7 C10.9,12.6 8.9,11 6.7,11 C4.8,11 3.6,12 3.6,13.6 C3.6,18.4 13.4,17.2 13.4,24.1 C13.4,27.2 10.7,29.9 7.4,29.9 C5.3,29.9 3.5,28.5 2.6,28.5 C1.9,28.5 1.4,29 1.4,29.8 L0.5,29.8 L0.5,23.4 L1.3,23.4 C2.1,27.4 5,28.8 7.4,28.8 C9.3,28.8 10.6,27.4 10.6,25.6 C10.6,20.4 0.6,21.7 0.6,15.4 C0.6,12.5 3.2,10 6.4,10 C8.4,10 9,10.8 10.3,10.8 C10.8,10.8 11.1,10.6 11.5,10 L12.3,10 L12.3,15.8 C12.3,15.7 11.3,15.7 11.3,15.7 L11.3,15.7 Z" id="Shape"></path>
                <path d="M30,16.9 C30.2,12.7 27.4,11 25,11 C21.9,11 20.1,13.3 19.8,16.9 L30,16.9 L30,16.9 Z M19.9,17.8 C19.8,26.2 24.8,28.4 27.3,28.4 C29.9,28.4 31.3,27.6 34,24.4 L34,25.8 C31.7,28.7 29.5,29.8 26.2,29.8 C20.3,29.8 16,25.7 16,20.1 C16,14.5 20.2,9.9 25.4,9.9 C29.7,9.9 33.8,13.5 33.5,17.8 C33.7,17.8 19.9,17.8 19.9,17.8 L19.9,17.8 Z" id="Shape"></path>
                <path d="M53.6,16.6 L52.8,16.6 C52,13.2 49.6,11 46.4,11 C42.7,11 40,14.2 40,18.8 C40,23.9 43.2,28.2 47,28.2 C49.3,28.2 52,27 54,24.2 L54,25.6 C52,28.3 49.1,29.8 45.7,29.8 C40.1,29.8 36.3,25.9 36.3,20.3 C36.3,14.5 40.6,9.8 46,9.8 C48.8,9.8 50.3,10.8 51.2,10.8 C51.7,10.8 52.1,10.4 52.5,9.8 L53.4,9.8 L53.6,16.6 L53.6,16.6 L53.6,16.6 Z" id="Shape"></path>
                <path d="M75.6,25.8 C75.6,27.9 76.3,28.4 78.8,28.4 L78.8,29.2 L72,29.6 L72,26.1 L71.9,26.1 C70,28.5 67.9,29.8 65.3,29.8 C61.6,29.8 59.1,27 59.1,23.4 L59.1,13.8 C59.1,12 58.5,11.3 55.7,11.3 L55.7,10.5 L61.8,10 L62.6,10 L62.6,23.4 C62.6,26 64.3,27.7 66.9,27.7 C68.7,27.7 70.4,26.7 71.8,24.7 L71.8,14.5 C71.8,11.9 71.4,11.6 68.1,11.6 L68.1,10.8 L74.5,10.2 L75.3,10.2 L75.6,25.8 L75.6,25.8 L75.6,25.8 Z" id="Shape"></path>
                <path d="M87.7,25.8 C87.7,27.9 88.3,28.4 90.8,28.4 L90.8,29.2 L80.8,29.2 L80.8,28.4 C83.7,28.4 84,27.7 84,24.8 L84,14.5 C84,11.8 83.3,11.5 80.1,11.5 L80.1,10.7 L86.7,10.2 L87.5,10.2 L87.5,14.3 C91.1,11.3 92.6,10.2 93.9,10.2 C94.9,10.2 96.4,10.8 97.4,11.7 L95.9,14.9 C94.4,14.1 92.7,13.2 91.4,13.2 C90.2,13.2 89.1,13.8 87.4,15.5 L87.7,25.8 L87.7,25.8 L87.7,25.8 Z" id="Shape"></path>
                <path d="M106.8,2.5 C106.8,3.8 105.8,4.8 104.5,4.8 C103.2,4.8 102.2,3.8 102.2,2.5 C102.2,1.2 103.2,0.2 104.5,0.2 C105.8,0.2 106.8,1.3 106.8,2.5 L106.8,2.5 Z M106.3,25.8 C106.3,27.7 106.8,28.4 109.4,28.4 L109.4,29.2 L99.1,29.2 L99.1,28.4 C102,28.4 102.7,28 102.7,25.8 L102.7,14.3 C102.7,11.7 101.9,11.5 99.1,11.5 L99.1,10.7 L105.4,10.2 L106.2,10.2 L106.3,25.8 L106.3,25.8 L106.3,25.8 Z" id="Shape"></path>
                <path d="M118.2,10.4 L124.7,10.4 L124.7,11.8 L118.2,11.8 L118.2,24 C118.2,26.6 119.6,28 121.6,28 C123,28 124,27.5 125.2,26.2 L125.7,26.9 C124,29 122.1,30 120,30 C116.8,30 114.6,27.8 114.6,24.6 L114.6,12 L111,12 L111,11.2 C113.6,9.9 115.6,7.6 117.3,4.4 L118.1,4.4 L118.2,10.4 L118.2,10.4 L118.2,10.4 Z" id="Shape"></path>
                <path d="M138.7,25 L141.9,15 C142.6,12.8 142.4,11.5 140.4,11.4 L140.4,10.6 L147.1,10.6 L147.1,11.4 C145.1,11.4 143.9,12.7 142.8,15.8 L135.3,37.9 C133.8,42.2 131.3,44.7 129.1,44.7 C128.3,44.7 127.7,44.5 126.8,43.9 L128,40.7 C128.7,41 129.2,41.1 129.8,41.1 C132.1,41.1 133.4,39.7 134.6,36.5 L137,29.7 L130.3,14.1 C129.4,11.9 128.6,11.4 126.4,11.3 L126.4,10.5 L135.4,10.5 L135.4,11.3 C133.9,11.5 133.4,12.6 134,14.2 L138.7,25 L138.7,25 Z" id="Shape"></path>
                <path d="M168.8,13.6 L162.3,29.2 L161.5,29.2 L155.2,13.6 L154,24.7 C153.8,26.8 154.3,27.9 156.5,28.4 L156.5,29.2 L149.6,29.2 L149.6,28.4 C151.6,28.1 152.4,27.5 152.7,24.7 L153.9,12.4 C153,11.7 152.5,11.7 151.2,11.4 L151.2,10.6 L157.4,10.6 L163.1,24.6 L169,10.6 L175.1,10.6 L175.1,11.4 C174.1,11.5 172.4,11.8 172.4,13.5 C172.4,13.7 172.5,15.2 172.5,15.4 L173.3,24.6 C173.6,28.1 174.7,28.3 176.5,28.5 L176.5,29.3 L167.3,29.3 L167.3,28.5 C169.1,28.2 170,28 170,25.8 L169.9,24.3 L168.8,13.6 L168.8,13.6 Z" id="Shape"></path>
                <path d="M186.5,25.3 C186.5,28.4 186.9,28.4 188.8,28.4 L191.7,28.4 C193.1,28.4 194.9,28.3 196,25.7 L196.8,25.7 L196,29.4 L180.1,29.4 L180.1,28.6 C182.4,28.4 183.1,28.2 183.1,25.4 L183.1,14.8 C183.1,12.1 182.3,11.9 180.1,11.6 L180.1,10.8 L195.7,10.8 L196,14.4 L195.2,14.4 C194.7,11.7 192.7,11.7 191,11.7 L186.5,11.7 L186.5,19.8 L189.9,19.8 C192.7,19.8 192.8,18.3 192.9,17.3 L193.7,17.3 L193.7,23.5 L192.9,23.5 C192.8,22.5 192.8,21 189.9,21 L186.5,21 L186.5,25.3 L186.5,25.3 L186.5,25.3 Z" id="Shape"></path>
                <path d="M210.3,25.3 C210.3,28.1 211.3,28.3 213.3,28.5 L213.3,29.3 L203.7,29.3 L203.7,28.5 C205.7,28.3 206.7,28.1 206.7,25.3 L206.7,11.9 L203.8,11.9 C200.6,11.9 200.2,14.4 200.1,15.6 L199.4,15.6 L199.5,9.8 L200.3,9.8 C201,10.3 201.5,10.7 203.2,10.7 L213.7,10.7 C215.4,10.7 215.8,10.4 216.6,9.8 L217.4,9.8 L217.5,15.6 L216.8,15.6 C216.7,14.6 216.4,11.9 213.1,11.9 L210.2,11.9 L210.3,25.3 L210.3,25.3 L210.3,25.3 Z" id="Shape"></path>
                <path d="M227,19.9 L229.4,19.9 C231.5,19.9 233.9,19.2 233.9,15.6 C233.9,13.1 232.7,11.4 229.9,11.4 L227,11.4 L227,19.9 L227,19.9 Z M223.7,14.6 C223.7,11.9 222.7,11.7 220.7,11.4 L220.7,10.6 L230,10.6 C231.5,10.6 237.6,10.6 237.6,15.5 C237.6,17.4 236.3,19.3 233.3,20.1 C235.3,21 236.1,22.2 238.7,25.9 C240.5,28.3 241.4,28.3 243.1,28.5 L243.1,29.3 L237.5,29.3 C236.5,28.1 236,27.7 233.4,24.1 C231.1,20.9 230,20.9 228.6,20.9 L227,20.9 L227,25.2 C227,28 228,28.2 230,28.4 L230,29.2 L220.5,29.2 L220.5,28.4 C222.5,28.2 223.5,28 223.5,25.2 L223.5,14.7 L223.7,14.7 L223.7,14.6 L223.7,14.6 Z" id="Shape"></path>
                <path d="M251.8,25.3 C251.8,28.1 252.8,28.3 254.8,28.5 L254.8,29.3 L245.3,29.3 L245.3,28.5 C247.3,28.3 248.3,28.1 248.3,25.3 L248.3,14.6 C248.3,11.9 247.3,11.7 245.3,11.4 L245.3,10.6 L254.8,10.6 L254.8,11.4 C252.8,11.6 251.8,11.8 251.8,14.6 L251.8,25.3 L251.8,25.3 L251.8,25.3 Z" id="Shape"></path>
                <path d="M276.4,16.5 L275.7,16.5 C275.3,15.1 275.1,14.4 274.4,13.6 C272.7,11.3 270.7,11 269.3,11 C264.5,11 262.3,15.5 262.3,19.7 C262.3,25.6 266.2,28.3 269.7,28.3 C270.2,28.3 273.7,28.3 276.3,24.7 L276.9,25.2 C276.2,26.4 274.3,29.7 268.5,29.7 C261.8,29.7 258.3,24.4 258.3,20.1 C258.3,14.4 263.4,10.1 268.6,10.1 C270.3,10.1 272.3,10.5 273.1,10.6 C273.4,10.7 273.8,10.7 274.3,10.7 C274.8,10.7 274.9,10.5 275.3,10.2 L276,10.2 L276.4,16.5 L276.4,16.5 Z" id="Shape"></path>
                <path d="M291.5,15.7 L290.8,15.7 C290.5,12.8 288.9,10.9 286.2,10.9 C284.1,10.9 283,12.4 283,13.6 C283,15.3 283.8,15.7 287.9,18.1 C291.3,20.1 292.5,22.2 292.5,24.3 C292.5,26.8 290.3,29.7 286.4,29.7 C285.6,29.7 284.8,29.7 282.9,28.8 C282.7,28.7 282.4,28.6 282.2,28.6 C281.6,28.6 281.5,29 281.4,29.3 L280.5,29.3 L280.5,23.2 L281.3,23.2 C281.8,26.1 283.3,28.8 286.3,28.8 C288.1,28.8 289.9,27.6 289.9,25.6 C289.9,23.6 288.4,22.6 284.9,20.5 C282.9,19.3 280.7,17.9 280.7,15.1 C280.7,12.6 282.6,10.2 286.1,10.2 C286.8,10.2 287.4,10.3 288,10.4 C289.5,10.8 289.6,10.8 289.9,10.8 C290.4,10.8 290.7,10.5 290.9,10.4 L291.6,10.4 L291.5,15.7 L291.5,15.7 L291.5,15.7 L291.5,15.7 Z" id="Shape"></path>
                <path d="M297.3,11.1 C297.3,11 297.3,11 297.2,10.9 C297.2,10.8 297.1,10.8 297.1,10.8 C297,10.7 297,10.7 296.9,10.7 L296.6,10.7 L296.1,10.7 L296.1,11.7 L296.5,11.7 C296.6,11.7 296.7,11.7 296.9,11.6 C297,11.6 297.1,11.5 297.1,11.5 C297.2,11.4 297.2,11.4 297.2,11.3 C297.3,11.3 297.3,11.1 297.3,11.1 L297.3,11.1 Z M298.5,13.3 L297.8,13.3 L296.6,12.1 L296.1,12.1 L296.1,13.3 L295.6,13.3 L295.6,10.3 L296.6,10.3 L297.1,10.3 C297.2,10.3 297.3,10.4 297.5,10.4 C297.6,10.5 297.7,10.6 297.8,10.6 C297.9,10.7 297.9,10.8 297.9,11 C297.9,11.2 297.8,11.4 297.7,11.5 C297.6,11.6 297.4,11.7 297.2,11.9 L298.5,13.3 L298.5,13.3 Z M299.2,11.8 C299.2,11.1 299,10.4 298.5,10 C298,9.5 297.5,9.3 296.7,9.3 C296,9.3 295.3,9.5 294.9,10 C294.4,10.5 294.2,11 294.2,11.8 C294.2,12.5 294.4,13.2 294.9,13.6 C295.4,14.1 295.9,14.3 296.7,14.3 C297.4,14.3 298.1,14.1 298.5,13.6 C299,13.1 299.2,12.5 299.2,11.8 L299.2,11.8 Z M299.6,11.8 C299.6,12.6 299.3,13.3 298.8,13.9 C298.3,14.4 297.5,14.7 296.7,14.7 C295.9,14.7 295.2,14.4 294.6,13.9 C294.1,13.4 293.8,12.6 293.8,11.8 C293.8,11 294.1,10.3 294.6,9.7 C295.1,9.2 295.9,8.9 296.7,8.9 C297.5,8.9 298.2,9.2 298.8,9.7 C299.3,10.3 299.6,11 299.6,11.8 L299.6,11.8 Z" id="Shape"></path>
                <path d="M297.3,11.1 C297.3,11 297.3,11 297.2,10.9 C297.2,10.8 297.1,10.8 297.1,10.8 C297,10.7 297,10.7 296.9,10.7 L296.6,10.7 L296.1,10.7 L296.1,11.7 L296.5,11.7 C296.6,11.7 296.7,11.7 296.9,11.6 C297,11.6 297.1,11.5 297.1,11.5 C297.2,11.4 297.2,11.4 297.2,11.3 C297.3,11.3 297.3,11.1 297.3,11.1 L297.3,11.1 Z M298.5,13.3 L297.8,13.3 L296.6,12.1 L296.1,12.1 L296.1,13.3 L295.6,13.3 L295.6,10.3 L296.6,10.3 L297.1,10.3 C297.2,10.3 297.3,10.4 297.5,10.4 C297.6,10.5 297.7,10.6 297.8,10.6 C297.9,10.7 297.9,10.8 297.9,11 C297.9,11.2 297.8,11.4 297.7,11.5 C297.6,11.6 297.4,11.7 297.2,11.9 L298.5,13.3 L298.5,13.3 Z M299.2,11.8 C299.2,11.1 299,10.4 298.5,10 C298,9.5 297.5,9.3 296.7,9.3 C296,9.3 295.3,9.5 294.9,10 C294.4,10.5 294.2,11 294.2,11.8 C294.2,12.5 294.4,13.2 294.9,13.6 C295.4,14.1 295.9,14.3 296.7,14.3 C297.4,14.3 298.1,14.1 298.5,13.6 C299,13.1 299.2,12.5 299.2,11.8 L299.2,11.8 Z M299.6,11.8 C299.6,12.6 299.3,13.3 298.8,13.9 C298.3,14.4 297.5,14.7 296.7,14.7 C295.9,14.7 295.2,14.4 294.6,13.9 C294.1,13.4 293.8,12.6 293.8,11.8 C293.8,11 294.1,10.3 294.6,9.7 C295.1,9.2 295.9,8.9 296.7,8.9 C297.5,8.9 298.2,9.2 298.8,9.7 C299.3,10.3 299.6,11 299.6,11.8 L299.6,11.8 Z" id="Shape"></path>
            </g>
        </g>
    </g>
</svg>